<svg width="32" height="33" viewBox="0 0 32 33" fill="none" xmlns="http://www.w3.org/2000/svg">
<g clip-path="url(#clip0)">
<path d="M31.9687 10.2631C31.8937 8.56279 31.6187 7.39386 31.2249 6.38096C30.8185 5.3058 30.1934 4.34321 29.3744 3.54301C28.5742 2.73035 27.6053 2.09888 26.5426 1.6989C25.5238 1.30502 24.361 1.03006 22.6607 0.955098C20.9477 0.873783 20.4039 0.85498 16.0593 0.85498C11.7147 0.85498 11.1709 0.873783 9.46429 0.948749C7.76401 1.02371 6.59508 1.29891 5.58243 1.69255C4.50703 2.09888 3.54444 2.724 2.74423 3.54301C1.93157 4.34321 1.30035 5.31215 0.900123 6.37486C0.506247 7.39386 0.231292 8.55644 0.156326 10.2567C0.0750111 11.9697 0.0562086 12.5135 0.0562086 16.8581C0.0562086 21.2027 0.0750111 21.7465 0.149977 23.4531C0.224943 25.1534 0.500143 26.3224 0.894018 27.3353C1.30035 28.4104 1.93157 29.373 2.74423 30.1732C3.54444 30.9859 4.51337 31.6173 5.57608 32.0173C6.59508 32.4112 7.75766 32.6861 9.45819 32.7611C11.1646 32.8363 11.7086 32.8549 16.0532 32.8549C20.3978 32.8549 20.9416 32.8363 22.6483 32.7611C24.3485 32.6861 25.5175 32.4112 26.5301 32.0173C28.6807 31.1859 30.381 29.4856 31.2124 27.3353C31.606 26.3163 31.8813 25.1534 31.9562 23.4531C32.0312 21.7465 32.05 21.2027 32.05 16.8581C32.05 12.5135 32.0436 11.9697 31.9687 10.2631ZM29.087 23.3281C29.0181 24.8909 28.7556 25.7348 28.5368 26.2975C27.9991 27.6915 26.8927 28.7979 25.4987 29.3356C24.9361 29.5544 24.086 29.8169 22.5293 29.8856C20.8415 29.9608 20.3353 29.9793 16.0657 29.9793C11.796 29.9793 11.2835 29.9608 9.60177 29.8856C8.03896 29.8169 7.19505 29.5544 6.63244 29.3356C5.9387 29.0792 5.30723 28.6729 4.79468 28.1416C4.26333 27.6227 3.857 26.9975 3.6006 26.3038C3.38181 25.7412 3.1193 24.8909 3.05069 23.3345C2.97548 21.6466 2.95692 21.1402 2.95692 16.8706C2.95692 12.6009 2.97548 12.0884 3.05069 10.4069C3.1193 8.84409 3.38181 8.00017 3.6006 7.43757C3.857 6.74358 4.26333 6.11236 4.80103 5.59956C5.31968 5.06821 5.94481 4.66188 6.63879 4.40572C7.2014 4.18693 8.05166 3.92443 9.60812 3.85557C11.2959 3.7806 11.8024 3.7618 16.0718 3.7618C20.3478 3.7618 20.854 3.7806 22.5357 3.85557C24.0985 3.92443 24.9424 4.18693 25.505 4.40572C26.1987 4.66188 26.8302 5.06821 27.3428 5.59956C27.8741 6.11846 28.2805 6.74358 28.5368 7.43757C28.7556 8.00017 29.0181 8.85019 29.087 10.4069C29.162 12.0947 29.1808 12.6009 29.1808 16.8706C29.1808 21.1402 29.162 21.6403 29.087 23.3281Z" fill="white"/>
<path d="M16.0593 8.6377C11.5211 8.6377 7.83899 12.3196 7.83899 16.858C7.83899 21.3965 11.5211 25.0784 16.0593 25.0784C20.5978 25.0784 24.2797 21.3965 24.2797 16.858C24.2797 12.3196 20.5978 8.6377 16.0593 8.6377ZM16.0593 22.1904C13.1152 22.1904 10.727 19.8025 10.727 16.858C10.727 13.9136 13.1152 11.5257 16.0593 11.5257C19.0038 11.5257 21.3917 13.9136 21.3917 16.858C21.3917 19.8025 19.0038 22.1904 16.0593 22.1904Z" fill="white"/>
<path d="M26.524 8.31263C26.524 9.37241 25.6647 10.2317 24.6047 10.2317C23.5449 10.2317 22.6856 9.37241 22.6856 8.31263C22.6856 7.25261 23.5449 6.39355 24.6047 6.39355C25.6647 6.39355 26.524 7.25261 26.524 8.31263Z" fill="white"/>
</g>
<defs>
<clipPath id="clip0">
<rect width="32" height="32" fill="white" transform="translate(0 0.85498)"/>
</clipPath>
</defs>
</svg>
