<svg width="32" height="33" viewBox="0 0 32 33" fill="none" xmlns="http://www.w3.org/2000/svg">
<g clip-path="url(#clip0)">
<path d="M16 32.855C24.8387 32.855 32 25.6936 32 16.855C32 8.01631 24.8387 0.85498 16 0.85498C7.16133 0.85498 0 8.01631 0 16.855C0 25.6936 7.16133 32.855 16 32.855ZM7.32133 16.5083L22.748 10.5603C23.464 10.3016 24.0893 10.735 23.8573 11.8176L23.8587 11.8163L21.232 24.191C21.0373 25.0683 20.516 25.2816 19.7867 24.8683L15.7867 21.9203L13.8573 23.779C13.644 23.9923 13.464 24.1723 13.0507 24.1723L13.3347 20.1016L20.748 13.4043C21.0707 13.1203 20.676 12.9603 20.2507 13.243L11.0893 19.011L7.14 17.779C6.28267 17.507 6.264 16.9216 7.32133 16.5083Z" fill="white"/>
</g>
<defs>
<clipPath id="clip0">
<rect width="32" height="32" fill="white" transform="translate(0 0.85498)"/>
</clipPath>
</defs>
</svg>
