<svg width="31" height="33" viewBox="0 0 31 33" fill="none" xmlns="http://www.w3.org/2000/svg">
<g clip-path="url(#clip0)">
<path d="M25.7235 18.2255C25.2224 17.5722 25.3657 17.2815 25.7235 16.6975C25.73 16.6908 29.8672 10.7895 30.2934 8.78815L30.296 8.78682C30.5079 8.05748 30.296 7.52148 29.2717 7.52148H25.8824C25.0196 7.52148 24.6217 7.98148 24.4086 8.49615C24.4086 8.49615 22.6829 12.7602 20.2417 15.5242C19.4538 16.3228 19.0895 16.5788 18.6594 16.5788C18.4476 16.5788 18.1182 16.3228 18.1182 15.5935V8.78682C18.1182 7.91215 17.8767 7.52148 17.1624 7.52148H11.833C11.2917 7.52148 10.9701 7.92948 10.9701 8.30948C10.9701 9.13882 12.1907 9.32948 12.3173 11.6628V16.7255C12.3173 17.8348 12.1223 18.0388 11.6896 18.0388C10.5374 18.0388 7.74095 13.7575 6.08374 8.85748C5.7492 7.90682 5.42241 7.52282 4.55312 7.52282H1.16249C0.195034 7.52282 -7.62939e-06 7.98282 -7.62939e-06 8.49748C-7.62939e-06 9.40682 1.15216 13.9282 5.35783 19.9015C8.16074 23.9788 12.1081 26.1882 15.6989 26.1882C17.8573 26.1882 18.1208 25.6975 18.1208 24.8535C18.1208 20.9575 17.9257 20.5895 19.0069 20.5895C19.508 20.5895 20.3709 20.8455 22.3859 22.8122C24.6889 25.1442 25.0674 26.1882 26.3565 26.1882H29.7458C30.7119 26.1882 31.2015 25.6975 30.9199 24.7295C30.2754 22.6935 25.9199 18.5055 25.7235 18.2255Z" fill="white"/>
</g>
<defs>
<clipPath id="clip0">
<rect width="31" height="32" fill="white" transform="translate(0 0.85498)"/>
</clipPath>
</defs>
</svg>
