<svg width="32" height="33" viewBox="0 0 32 33" fill="none" xmlns="http://www.w3.org/2000/svg">
<g clip-path="url(#clip0)">
<path d="M16.004 0.85498H15.996C7.174 0.85498 0 8.03098 0 16.855C0 20.355 1.128 23.599 3.046 26.233L1.052 32.177L7.202 30.211C9.732 31.887 12.75 32.855 16.004 32.855C24.826 32.855 32 25.677 32 16.855C32 8.03298 24.826 0.85498 16.004 0.85498ZM25.314 23.449C24.928 24.539 23.396 25.443 22.174 25.707C21.338 25.885 20.246 26.027 16.57 24.503C11.868 22.555 8.84 17.777 8.604 17.467C8.378 17.157 6.704 14.937 6.704 12.641C6.704 10.345 7.87 9.22698 8.34 8.74698C8.726 8.35298 9.364 8.17298 9.976 8.17298C10.174 8.17298 10.352 8.18298 10.512 8.19098C10.982 8.21098 11.218 8.23898 11.528 8.98098C11.914 9.91098 12.854 12.207 12.966 12.443C13.08 12.679 13.194 12.999 13.034 13.309C12.884 13.629 12.752 13.771 12.516 14.043C12.28 14.315 12.056 14.523 11.82 14.815C11.604 15.069 11.36 15.341 11.632 15.811C11.904 16.271 12.844 17.805 14.228 19.037C16.014 20.627 17.462 21.135 17.98 21.351C18.366 21.511 18.826 21.473 19.108 21.173C19.466 20.787 19.908 20.147 20.358 19.517C20.678 19.065 21.082 19.009 21.506 19.169C21.938 19.319 24.224 20.449 24.694 20.683C25.164 20.919 25.474 21.031 25.588 21.229C25.7 21.427 25.7 22.357 25.314 23.449Z" fill="white"/>
</g>
<defs>
<clipPath id="clip0">
<rect width="32" height="32" fill="white" transform="translate(0 0.85498)"/>
</clipPath>
</defs>
</svg>
